<svg xmlns="http://www.w3.org/2000/svg" viewBox="0 0 800 500" fill="none">
  <defs>
    <linearGradient id="abg" x1="0" y1="0" x2="1" y2="1">
      <stop offset="0%" stop-color="#f0f4f8"/>
      <stop offset="100%" stop-color="#d9e2ec"/>
    </linearGradient>
    <linearGradient id="building" x1="0" y1="0" x2="0" y2="1">
      <stop offset="0%" stop-color="#e2e8f0"/>
      <stop offset="100%" stop-color="#cbd5e0"/>
    </linearGradient>
  </defs>
  <!-- Background -->
  <rect width="800" height="500" fill="url(#abg)"/>
  <!-- Building/warehouse -->
  <rect x="150" y="120" width="500" height="300" rx="8" fill="url(#building)"/>
  <rect x="150" y="120" width="500" height="300" rx="8" fill="none" stroke="#a0aec0" stroke-width="2"/>
  <!-- Roof -->
  <path d="M130 120 L400 40 L670 120Z" fill="#486581"/>
  <path d="M130 120 L400 40 L670 120Z" fill="none" stroke="#334e68" stroke-width="2"/>
  <!-- Sign -->
  <rect x="280" y="60" width="240" height="40" rx="6" fill="#102a43"/>
  <text x="400" y="87" text-anchor="middle" font-size="18" font-weight="bold" fill="#f0f4f8" font-family="sans-serif">JAWAD TRADERS</text>
  <!-- Windows -->
  <rect x="190" y="160" width="60" height="50" rx="4" fill="#ebf8ff" stroke="#90cdf4" stroke-width="1.5"/>
  <line x1="220" y1="160" x2="220" y2="210" stroke="#90cdf4" stroke-width="1"/>
  <line x1="190" y1="185" x2="250" y2="185" stroke="#90cdf4" stroke-width="1"/>
  <rect x="290" y="160" width="60" height="50" rx="4" fill="#ebf8ff" stroke="#90cdf4" stroke-width="1.5"/>
  <line x1="320" y1="160" x2="320" y2="210" stroke="#90cdf4" stroke-width="1"/>
  <line x1="290" y1="185" x2="350" y2="185" stroke="#90cdf4" stroke-width="1"/>
  <rect x="450" y="160" width="60" height="50" rx="4" fill="#ebf8ff" stroke="#90cdf4" stroke-width="1.5"/>
  <line x1="480" y1="160" x2="480" y2="210" stroke="#90cdf4" stroke-width="1"/>
  <line x1="450" y1="185" x2="510" y2="185" stroke="#90cdf4" stroke-width="1"/>
  <rect x="550" y="160" width="60" height="50" rx="4" fill="#ebf8ff" stroke="#90cdf4" stroke-width="1.5"/>
  <line x1="580" y1="160" x2="580" y2="210" stroke="#90cdf4" stroke-width="1"/>
  <line x1="550" y1="185" x2="610" y2="185" stroke="#90cdf4" stroke-width="1"/>
  <!-- Door -->
  <rect x="365" y="280" width="70" height="140" rx="4" fill="#334e68"/>
  <rect x="365" y="280" width="70" height="140" rx="4" fill="none" stroke="#243b53" stroke-width="2"/>
  <circle cx="425" cy="355" r="4" fill="#ecc94b"/>
  <!-- Roller shutter (warehouse door) -->
  <rect x="180" y="280" width="140" height="100" rx="4" fill="#718096"/>
  <line x1="180" y1="295" x2="320" y2="295" stroke="#4a5568" stroke-width="1"/>
  <line x1="180" y1="310" x2="320" y2="310" stroke="#4a5568" stroke-width="1"/>
  <line x1="180" y1="325" x2="320" y2="325" stroke="#4a5568" stroke-width="1"/>
  <line x1="180" y1="340" x2="320" y2="340" stroke="#4a5568" stroke-width="1"/>
  <line x1="180" y1="355" x2="320" y2="355" stroke="#4a5568" stroke-width="1"/>
  <line x1="180" y1="370" x2="320" y2="370" stroke="#4a5568" stroke-width="1"/>
  <rect x="490" y="280" width="140" height="100" rx="4" fill="#718096"/>
  <line x1="490" y1="295" x2="630" y2="295" stroke="#4a5568" stroke-width="1"/>
  <line x1="490" y1="310" x2="630" y2="310" stroke="#4a5568" stroke-width="1"/>
  <line x1="490" y1="325" x2="630" y2="325" stroke="#4a5568" stroke-width="1"/>
  <line x1="490" y1="340" x2="630" y2="340" stroke="#4a5568" stroke-width="1"/>
  <line x1="490" y1="355" x2="630" y2="355" stroke="#4a5568" stroke-width="1"/>
  <line x1="490" y1="370" x2="630" y2="370" stroke="#4a5568" stroke-width="1"/>
  <!-- Ground/road -->
  <rect x="0" y="420" width="800" height="80" fill="#a0aec0" opacity="0.3"/>
  <line x1="0" y1="420" x2="800" y2="420" stroke="#a0aec0" stroke-width="2"/>
  <!-- Delivery truck -->
  <rect x="60" y="380" width="80" height="40" rx="4" fill="#486581"/>
  <rect x="25" y="395" width="40" height="25" rx="3" fill="#627d98"/>
  <rect x="25" y="395" width="40" height="25" rx="3" fill="none" stroke="#334e68" stroke-width="1.5"/>
  <circle cx="50" cy="425" r="10" fill="#2d3748" stroke="#4a5568" stroke-width="2"/>
  <circle cx="50" cy="425" r="4" fill="#718096"/>
  <circle cx="120" cy="425" r="10" fill="#2d3748" stroke="#4a5568" stroke-width="2"/>
  <circle cx="120" cy="425" r="4" fill="#718096"/>
  <!-- Gas cylinders near building -->
  <rect x="660" y="340" width="25" height="60" rx="8" fill="#829ab1" stroke="#334e68" stroke-width="1.5"/>
  <rect x="666" y="333" width="13" height="10" rx="4" fill="#627d98"/>
  <rect x="695" y="345" width="22" height="55" rx="7" fill="#48bb78" stroke="#22543d" stroke-width="1.5"/>
  <rect x="700" y="338" width="12" height="10" rx="4" fill="#38a169"/>
  <!-- Decorative elements -->
  <circle cx="720" cy="80" r="30" fill="#ecc94b" opacity="0.6"/>
  <circle cx="720" cy="80" r="22" fill="#f6e05e" opacity="0.4"/>
  <!-- Years badge -->
  <circle cx="700" cy="250" r="35" fill="#102a43"/>
  <text x="700" y="245" text-anchor="middle" font-size="16" font-weight="bold" fill="#f0f4f8">10+</text>
  <text x="700" y="265" text-anchor="middle" font-size="10" fill="#9fb3c8">YEARS</text>
</svg>
