<svg xmlns="http://www.w3.org/2000/svg" viewBox="0 0 800 500" fill="none">
  <defs>
    <linearGradient id="sky" x1="0" y1="0" x2="0" y2="1">
      <stop offset="0%" stop-color="#d9e2ec"/>
      <stop offset="100%" stop-color="#f0f4f8"/>
    </linearGradient>
    <linearGradient id="cyl1" x1="0" y1="0" x2="0" y2="1">
      <stop offset="0%" stop-color="#829ab1"/>
      <stop offset="100%" stop-color="#486581"/>
    </linearGradient>
    <linearGradient id="cyl2" x1="0" y1="0" x2="0" y2="1">
      <stop offset="0%" stop-color="#48bb78"/>
      <stop offset="100%" stop-color="#276749"/>
    </linearGradient>
    <linearGradient id="cyl3" x1="0" y1="0" x2="0" y2="1">
      <stop offset="0%" stop-color="#e53e3e"/>
      <stop offset="100%" stop-color="#9b2c2c"/>
    </linearGradient>
    <linearGradient id="floor" x1="0" y1="0" x2="0" y2="1">
      <stop offset="0%" stop-color="#e2e8f0"/>
      <stop offset="100%" stop-color="#cbd5e0"/>
    </linearGradient>
  </defs>
  <!-- Background -->
  <rect width="800" height="500" fill="url(#sky)"/>
  <!-- Floor -->
  <rect x="0" y="380" width="800" height="120" fill="url(#floor)" rx="0"/>
  <line x1="0" y1="380" x2="800" y2="380" stroke="#a0aec0" stroke-width="2"/>
  <!-- Warehouse wall lines -->
  <rect x="50" y="60" width="700" height="320" rx="8" fill="none" stroke="#bcccdc" stroke-width="2" stroke-dasharray="8 4"/>
  <!-- Shelving -->
  <rect x="80" y="200" width="640" height="6" rx="3" fill="#9fb3c8"/>
  <rect x="80" y="195" width="8" height="185" rx="2" fill="#9fb3c8"/>
  <rect x="712" y="195" width="8" height="185" rx="2" fill="#9fb3c8"/>
  <rect x="395" y="195" width="8" height="185" rx="2" fill="#9fb3c8"/>
  <!-- Large cylinder 1 (blue) -->
  <rect x="140" y="100" width="70" height="160" rx="16" fill="url(#cyl1)"/>
  <rect x="155" y="80" width="40" height="25" rx="8" fill="#627d98"/>
  <circle cx="175" cy="75" r="8" fill="#829ab1" stroke="#334e68" stroke-width="2"/>
  <rect x="170" y="60" width="10" height="18" rx="3" fill="#9fb3c8"/>
  <ellipse cx="175" cy="260" rx="35" ry="6" fill="#334e68" opacity="0.3"/>
  <path d="M155 150 h40" stroke="#bcccdc" stroke-width="1.5" stroke-dasharray="4 3"/>
  <path d="M155 180 h40" stroke="#bcccdc" stroke-width="1.5" stroke-dasharray="4 3"/>
  <text x="175" y="210" text-anchor="middle" font-size="11" font-weight="bold" fill="#f0f4f8">LPG</text>
  <!-- Large cylinder 2 (green) -->
  <rect x="260" y="110" width="65" height="150" rx="14" fill="url(#cyl2)"/>
  <rect x="273" y="92" width="38" height="22" rx="7" fill="#38a169"/>
  <circle cx="292" cy="87" r="7" fill="#48bb78" stroke="#22543d" stroke-width="2"/>
  <rect x="287" y="72" width="10" height="18" rx="3" fill="#68d391"/>
  <ellipse cx="292" cy="260" rx="32" ry="5" fill="#22543d" opacity="0.3"/>
  <text x="292" y="200" text-anchor="middle" font-size="10" font-weight="bold" fill="#f0fff4">O₂</text>
  <!-- Large cylinder 3 (red) -->
  <rect x="380" y="105" width="68" height="155" rx="15" fill="url(#cyl3)"/>
  <rect x="394" y="86" width="40" height="24" rx="8" fill="#e53e3e"/>
  <circle cx="414" cy="80" r="8" fill="#fc8181" stroke="#9b2c2c" stroke-width="2"/>
  <rect x="409" y="64" width="10" height="18" rx="3" fill="#feb2b2"/>
  <ellipse cx="414" cy="260" rx="34" ry="5" fill="#742a2a" opacity="0.3"/>
  <text x="414" y="198" text-anchor="middle" font-size="10" font-weight="bold" fill="#fff5f5">LPG</text>
  <!-- Small cylinders on shelf -->
  <rect x="500" y="220" width="40" height="100" rx="10" fill="url(#cyl1)" opacity="0.85"/>
  <rect x="510" y="210" width="20" height="14" rx="5" fill="#627d98"/>
  <circle cx="520" cy="207" r="5" fill="#829ab1" stroke="#334e68" stroke-width="1.5"/>
  <rect x="555" y="225" width="38" height="95" rx="9" fill="url(#cyl2)" opacity="0.85"/>
  <rect x="564" y="216" width="20" height="13" rx="5" fill="#38a169"/>
  <circle cx="574" cy="213" r="5" fill="#48bb78" stroke="#22543d" stroke-width="1.5"/>
  <rect x="608" y="222" width="40" height="98" rx="10" fill="url(#cyl3)" opacity="0.85"/>
  <rect x="618" y="213" width="20" height="13" rx="5" fill="#e53e3e"/>
  <circle cx="628" cy="210" r="5" fill="#fc8181" stroke="#9b2c2c" stroke-width="1.5"/>
  <rect x="662" y="228" width="36" height="92" rx="9" fill="url(#cyl1)" opacity="0.7"/>
  <rect x="672" y="220" width="16" height="12" rx="4" fill="#627d98"/>
  <!-- Delivery hand truck -->
  <rect x="100" y="310" width="8" height="60" rx="2" fill="#718096" transform="rotate(-10 104 340)"/>
  <rect x="95" y="365" width="50" height="6" rx="3" fill="#718096"/>
  <circle cx="140" cy="378" r="12" fill="none" stroke="#4a5568" stroke-width="3"/>
  <circle cx="140" cy="378" r="4" fill="#4a5568"/>
  <!-- Pressure gauge on wall -->
  <circle cx="680" cy="120" r="25" fill="#f7fafc" stroke="#4a5568" stroke-width="2"/>
  <circle cx="680" cy="120" r="20" fill="none" stroke="#e2e8f0" stroke-width="1"/>
  <line x1="680" y1="120" x2="693" y2="110" stroke="#e53e3e" stroke-width="2" stroke-linecap="round"/>
  <circle cx="680" cy="120" r="3" fill="#4a5568"/>
  <text x="680" y="155" text-anchor="middle" font-size="9" fill="#4a5568">PSI</text>
</svg>
