<svg xmlns="http://www.w3.org/2000/svg" viewBox="0 0 800 500" fill="none">
  <defs>
    <linearGradient id="vbg" x1="0" y1="0" x2="0" y2="1">
      <stop offset="0%" stop-color="#f0fff4"/>
      <stop offset="100%" stop-color="#c6f6d5"/>
    </linearGradient>
    <linearGradient id="carrot" x1="0" y1="0" x2="0" y2="1">
      <stop offset="0%" stop-color="#fc8181"/>
      <stop offset="60%" stop-color="#ed8936"/>
      <stop offset="100%" stop-color="#dd6b20"/>
    </linearGradient>
    <linearGradient id="tomato" x1="0.3" y1="0" x2="0.7" y2="1">
      <stop offset="0%" stop-color="#fc8181"/>
      <stop offset="100%" stop-color="#e53e3e"/>
    </linearGradient>
    <linearGradient id="eggplant" x1="0" y1="0" x2="0" y2="1">
      <stop offset="0%" stop-color="#b794f4"/>
      <stop offset="100%" stop-color="#6b46c1"/>
    </linearGradient>
    <linearGradient id="crate-g" x1="0" y1="0" x2="0" y2="1">
      <stop offset="0%" stop-color="#ecc94b"/>
      <stop offset="100%" stop-color="#b7791f"/>
    </linearGradient>
  </defs>
  <!-- Background -->
  <rect width="800" height="500" fill="url(#vbg)"/>
  <!-- Wooden crate 1 -->
  <rect x="80" y="250" width="200" height="140" rx="6" fill="url(#crate-g)" opacity="0.8"/>
  <rect x="80" y="250" width="200" height="140" rx="6" fill="none" stroke="#975a16" stroke-width="2"/>
  <line x1="80" y1="290" x2="280" y2="290" stroke="#975a16" stroke-width="1.5"/>
  <line x1="80" y1="330" x2="280" y2="330" stroke="#975a16" stroke-width="1.5"/>
  <line x1="80" y1="370" x2="280" y2="370" stroke="#975a16" stroke-width="1.5"/>
  <!-- Tomatoes in crate 1 -->
  <circle cx="120" cy="240" r="22" fill="url(#tomato)"/>
  <circle cx="120" cy="240" r="22" fill="none" stroke="#c53030" stroke-width="1"/>
  <path d="M115 222 Q120 218 125 222" fill="#48bb78"/>
  <circle cx="165" cy="235" r="24" fill="url(#tomato)"/>
  <circle cx="165" cy="235" r="24" fill="none" stroke="#c53030" stroke-width="1"/>
  <path d="M160 215 Q165 210 170 215" fill="#48bb78"/>
  <circle cx="210" cy="238" r="21" fill="url(#tomato)"/>
  <path d="M205 220 Q210 216 215 220" fill="#48bb78"/>
  <circle cx="250" cy="242" r="20" fill="url(#tomato)" opacity="0.9"/>
  <path d="M245 225 Q250 221 255 225" fill="#48bb78"/>
  <circle cx="142" cy="248" r="18" fill="#fc8181" opacity="0.7"/>
  <!-- Wooden crate 2 -->
  <rect x="310" y="260" width="200" height="130" rx="6" fill="url(#crate-g)" opacity="0.75"/>
  <rect x="310" y="260" width="200" height="130" rx="6" fill="none" stroke="#975a16" stroke-width="2"/>
  <line x1="310" y1="300" x2="510" y2="300" stroke="#975a16" stroke-width="1.5"/>
  <line x1="310" y1="340" x2="510" y2="340" stroke="#975a16" stroke-width="1.5"/>
  <!-- Eggplants in crate 2 -->
  <ellipse cx="360" cy="245" rx="18" ry="35" fill="url(#eggplant)" transform="rotate(-15 360 245)"/>
  <path d="M355 212 Q360 205 365 212 Q370 205 375 212" fill="#48bb78"/>
  <ellipse cx="410" cy="248" rx="16" ry="33" fill="url(#eggplant)" transform="rotate(5 410 248)"/>
  <path d="M405 217 Q410 210 415 217 Q420 210 425 217" fill="#48bb78"/>
  <ellipse cx="460" cy="242" rx="17" ry="34" fill="url(#eggplant)" transform="rotate(-8 460 242)"/>
  <path d="M455 210 Q460 203 465 210" fill="#48bb78"/>
  <!-- Carrots -->
  <path d="M570 180 Q590 300 585 340 L575 340 Q570 300 550 180Z" fill="url(#carrot)"/>
  <path d="M540 200 Q555 310 552 345 L542 345 Q540 310 520 200Z" fill="url(#carrot)" opacity="0.9"/>
  <path d="M600 190 Q615 305 612 338 L602 338 Q600 305 585 190Z" fill="url(#carrot)" opacity="0.85"/>
  <!-- Carrot leaves -->
  <path d="M545 180 Q530 150 550 140 Q555 150 560 180" fill="#48bb78"/>
  <path d="M555 175 Q545 145 560 130 Q565 145 570 175" fill="#38a169"/>
  <path d="M575 165 Q565 135 580 125 Q585 135 590 165" fill="#48bb78"/>
  <path d="M585 170 Q580 140 595 130 Q600 140 605 170" fill="#38a169"/>
  <!-- Onions -->
  <circle cx="680" cy="340" r="30" fill="#f6e05e"/>
  <circle cx="680" cy="340" r="30" fill="none" stroke="#d69e2e" stroke-width="1.5"/>
  <path d="M675 312 Q680 300 685 312" fill="#9ae6b4"/>
  <circle cx="730" cy="350" r="26" fill="#fefcbf"/>
  <circle cx="730" cy="350" r="26" fill="none" stroke="#d69e2e" stroke-width="1.5"/>
  <circle cx="640" cy="355" r="28" fill="#f6e05e" opacity="0.8"/>
  <circle cx="640" cy="355" r="28" fill="none" stroke="#d69e2e" stroke-width="1.5"/>
  <!-- Green chilies -->
  <path d="M100 420 Q130 400 170 410" stroke="#38a169" stroke-width="8" stroke-linecap="round" fill="none"/>
  <path d="M120 435 Q150 420 190 425" stroke="#48bb78" stroke-width="7" stroke-linecap="round" fill="none"/>
  <path d="M90 445 Q120 430 160 438" stroke="#38a169" stroke-width="6" stroke-linecap="round" fill="none"/>
  <!-- Potatoes -->
  <ellipse cx="400" cy="430" rx="35" ry="25" fill="#d69e2e" opacity="0.7"/>
  <ellipse cx="450" cy="440" rx="30" ry="22" fill="#b7791f" opacity="0.6"/>
  <ellipse cx="360" cy="445" rx="28" ry="20" fill="#d69e2e" opacity="0.65"/>
  <!-- Fresh banner -->
  <rect x="560" y="80" width="180" height="60" rx="30" fill="#38a169"/>
  <text x="650" y="118" text-anchor="middle" font-size="22" font-weight="bold" fill="white">FRESH</text>
  <!-- Daily text -->
  <rect x="580" y="150" width="140" height="35" rx="17" fill="#276749"/>
  <text x="650" y="174" text-anchor="middle" font-size="14" font-weight="bold" fill="#c6f6d5">DAILY</text>
  <!-- Decorative leaves -->
  <circle cx="50" cy="50" r="35" fill="#9ae6b4" opacity="0.3"/>
  <circle cx="750" cy="30" r="45" fill="#9ae6b4" opacity="0.25"/>
</svg>
